<?xml version="1.0" encoding="UTF-8" standalone="no"?>
<!-- Created with Inkscape (http://www.inkscape.org/) -->

<svg
   width="151.01128mm"
   height="174.05865mm"
   viewBox="0 0 151.01128 174.05865"
   version="1.1"
   id="svg1"
   inkscape:version="1.3.1 (9b9bdc1480, 2023-11-25, custom)"
   sodipodi:docname="anndataR_logo_final.svg"
   xmlns:inkscape="http://www.inkscape.org/namespaces/inkscape"
   xmlns:sodipodi="http://sodipodi.sourceforge.net/DTD/sodipodi-0.dtd"
   xmlns="http://www.w3.org/2000/svg"
   xmlns:svg="http://www.w3.org/2000/svg">
  <sodipodi:namedview
     id="namedview1"
     pagecolor="#ffffff"
     bordercolor="#000000"
     borderopacity="0.25"
     inkscape:showpageshadow="2"
     inkscape:pageopacity="0.0"
     inkscape:pagecheckerboard="0"
     inkscape:deskcolor="#d1d1d1"
     inkscape:document-units="mm"
     inkscape:zoom="0.7198092"
     inkscape:cx="77.798394"
     inkscape:cy="395.93826"
     inkscape:window-width="1920"
     inkscape:window-height="1011"
     inkscape:window-x="0"
     inkscape:window-y="0"
     inkscape:window-maximized="1"
     inkscape:current-layer="g1"
     showgrid="false" />
  <defs
     id="defs1" />
  <g
     inkscape:label="Layer 1"
     inkscape:groupmode="layer"
     id="layer1"
     transform="translate(-27.515848,-33.972642)">
    <g
       id="g39366"
       transform="matrix(4.3318086,2.5009711,-2.5009711,4.3318086,17.808071,-805.73156)"
       inkscape:label="hexagon">
      <path
         style="color:#000000;fill:#194c61;fill-opacity:1;stroke-width:0.98933;stroke-linecap:round;stroke-linejoin:round;-inkscape-stroke:none"
         d="m 107.34275,151.92306 14.13578,-0.0572 3.29543,-0.0137 -8.65242,15.13265 z"
         id="path39364" />
      <path
         style="color:#000000;fill:#2c96c0;fill-opacity:1;stroke-width:0.98933;stroke-linecap:round;stroke-linejoin:round;-inkscape-stroke:none"
         d="m 107.35813,151.97114 8.65243,-15.13265 8.77706,15.06091 z"
         id="path39363" />
      <path
         style="color:#000000;fill:#965ba5;fill-opacity:1;stroke-width:0.98933;stroke-linecap:round;stroke-linejoin:round;-inkscape-stroke:none"
         d="m 98.723733,167.01836 8.652427,-15.13264 7.16211,12.28735 1.61841,2.77536 z"
         id="path39362" />
      <path
         style="color:#000000;fill:#efc41c;fill-opacity:1;stroke-width:0.98933;stroke-linecap:round;stroke-linejoin:round;-inkscape-stroke:none"
         d="m 98.628856,136.92268 17.429514,-0.0718 -8.65243,15.13264 -7.16212,-12.28736 z"
         id="path39361" />
      <path
         style="color:#000000;fill:#f15c5a;fill-opacity:1;stroke-width:0.98933;stroke-linecap:round;stroke-linejoin:round;-inkscape-stroke:none"
         d="m 89.994455,151.9699 3.311021,-0.0139 14.118494,-0.0578 -8.652429,15.13264 z"
         id="path39360" />
      <path
         style="color:#000000;fill:#ef9021;fill-opacity:1;stroke-width:0.98933;stroke-linecap:round;stroke-linejoin:round;-inkscape-stroke:none"
         d="m 90.008132,152.01704 8.652434,-15.13265 8.778754,15.06185 z"
         id="path39359" />
    </g>
    <path
       sodipodi:type="star"
       style="fill:#4fba6f;fill-opacity:1;fill-rule:nonzero;stroke:none;stroke-width:2.6;stroke-linecap:round;stroke-linejoin:round;stroke-dasharray:none;stroke-opacity:1"
       id="path27-4"
       inkscape:flatsided="true"
       sodipodi:sides="6"
       sodipodi:cx="36.820728"
       sodipodi:cy="63.988216"
       sodipodi:r1="83.877426"
       sodipodi:r2="72.639984"
       sodipodi:arg1="0.52359878"
       sodipodi:arg2="1.0471976"
       inkscape:rounded="0"
       inkscape:randomized="0"
       d="m 109.46071,105.92693 -72.639982,41.93871 -72.639982,-41.93871 10e-7,-83.877427 72.639982,-41.938713 72.639981,41.938714 z"
       transform="matrix(0.88124386,0,0,0.88124386,70.573448,64.612757)" />
    <g
       id="g1"
       transform="translate(3.9088744)">
      <g
         id="g39353"
         transform="matrix(2.4423155,0,0,2.4423155,29.899909,-269.67959)">
        <path
           style="fill:#ffffff;fill-opacity:1;stroke:none;stroke-width:0.323348;stroke-dasharray:none;stroke-opacity:1"
           d="m 14.314757,159.36742 v -17.28791 l 10.920116,0.0142 10.920111,0.0142 0.636529,0.11963 c 4.293565,0.80707 7.005758,3.07452 7.856758,6.56834 0.377509,1.54982 0.376739,3.61454 -0.0023,5.1982 -0.493887,2.06516 -1.565438,3.72039 -3.218486,4.97156 -1.341248,1.01517 -3.146729,1.77236 -4.925359,2.06571 -0.374804,0.0618 -0.680598,0.12398 -0.67954,0.1381 0.0011,0.0142 0.377164,0.14974 0.835782,0.30127 2.39037,0.78978 3.45884,1.48815 4.183462,2.7344 0.647746,1.11397 6.424127,10.87007 7.150974,12.07764 l 0.224474,0.37297 h -5.90952 -5.90972 L 35.3802,174.7392 c -0.921323,-1.73481 -2.376585,-4.46195 -3.97396,-7.44736 -1.363686,-2.54863 -2.1755,-3.60016 -3.123213,-4.04548 -0.253093,-0.11895 -0.283753,-0.12093 -1.896775,-0.12141 l -1.639524,-7.6e-4 0.01889,3.51143 c 0.01038,1.93131 0.0131,4.97583 0.006,6.76565 l -0.01283,3.25416 h -5.221894 -5.222119 z m 17.569932,-3.98631 c 0.531218,-0.11116 1.161356,-0.44096 1.509806,-0.79028 0.547029,-0.5483 0.787567,-1.20491 0.786108,-2.14592 -0.0027,-1.42935 -0.597689,-2.31883 -1.832875,-2.73796 l -0.411598,-0.13968 -3.537122,-0.0152 -3.537138,-0.0151 v 2.96031 2.96037 l 3.331341,-0.001 c 2.724579,-7.7e-4 3.39694,-0.0148 3.691478,-0.0762 z"
           id="path21-1" />
        <rect
           style="fill:#f15c5a;fill-opacity:1;stroke:#000000;stroke-width:0.307086;stroke-linecap:round;stroke-linejoin:round;stroke-dasharray:none;stroke-opacity:1"
           id="rect28701-3"
           width="9.125535"
           height="6.7648597"
           x="15.020188"
           y="155.90492" />
        <rect
           style="fill:#ef9021;fill-opacity:1;stroke:#000000;stroke-width:0.307086;stroke-linecap:round;stroke-linejoin:round;stroke-dasharray:none;stroke-opacity:1"
           id="rect28702-4"
           width="3.5940137"
           height="6.7501817"
           x="24.808487"
           y="155.88678" />
        <path
           style="fill:#4fba6f;fill-opacity:1;stroke:#000000;stroke-width:0.307086;stroke-linecap:round;stroke-linejoin:round;stroke-dasharray:none;stroke-opacity:1"
           d="m 28.945945,155.84888 c 1.005509,-0.009 1.982649,0.14136 2.940189,-0.0688 0.576624,-0.12656 1.154421,-0.34763 1.62518,-0.70386 0.34409,-0.26038 0.523326,-0.59937 0.817926,-1.00337 l 4.876089,5.6208 c -0.421774,0.27809 -0.89269,0.41466 -1.357502,0.57361 -0.430111,0.14709 -0.875826,0.24472 -1.318138,0.34954 -0.547616,0.12979 -1.120007,0.1638 -1.652593,0.34568 -0.887721,0.30317 -1.631751,0.96406 -2.531593,1.2291 -1.071187,0.3155 -3.325605,0.40399 -3.325605,0.40399 z"
           id="path28702-4"
           sodipodi:nodetypes="caaccaaaacc" />
        <path
           style="fill:#efc41c;fill-opacity:1;stroke:#000000;stroke-width:0.307086;stroke-linecap:round;stroke-linejoin:round;stroke-dasharray:none;stroke-opacity:1"
           d="m 34.595994,153.44404 c 0,0 0.208088,-0.8856 0.187006,-1.33419 -0.02199,-0.46802 -0.324801,-1.36757 -0.324801,-1.36757 l 9.960989,1.81687 c 0,0 -0.247603,1.8072 -0.613906,2.62928 -0.459365,1.03095 -1.134331,1.98368 -1.936832,2.77732 -0.554427,0.5483 -1.933519,1.31671 -1.933519,1.31671 z"
           id="path28703-4"
           sodipodi:nodetypes="caccaacc" />
        <path
           style="fill:#194c61;fill-opacity:1;stroke:#000000;stroke-width:0.307086;stroke-linecap:round;stroke-linejoin:round;stroke-dasharray:none;stroke-opacity:1"
           d="m 29.400897,163.21536 c 0,0 2.032749,-0.0704 2.999981,-0.34972 0.482428,-0.13934 1.119604,-0.53712 1.68554,-0.82932 0.6017,-0.31066 1.057019,-0.54717 1.057019,-0.54717 0,0 1.934901,0.63747 2.835556,1.10397 0.556002,0.28798 1.114314,0.60351 1.56658,1.03656 0.558852,0.5351 0.944717,1.22788 1.363667,1.87837 0.230765,0.35831 0.631306,1.11183 0.631306,1.11183 l 0.326912,0.69785 -9.665979,0.0197 -1.598903,-2.94536 z"
           id="path28704-4"
           sodipodi:nodetypes="csscaaaccccc" />
        <path
           style="fill:#965ba5;fill-opacity:1;stroke:#000000;stroke-width:0.307086;stroke-linecap:round;stroke-linejoin:round;stroke-dasharray:none;stroke-opacity:1"
           d="m 32.442381,167.82333 9.696344,0.0443 4.862014,8.0735 -10.116996,0.0247 z"
           id="path28705-7"
           sodipodi:nodetypes="ccccc" />
        <path
           style="fill:#2c96c0;fill-opacity:1;stroke:#000000;stroke-width:0.307086;stroke-linecap:round;stroke-linejoin:round;stroke-dasharray:none;stroke-opacity:1"
           d="m 29.012726,154.98827 c 0,0 1.858784,0.12137 2.745735,-0.10726 0.370008,-0.0954 0.733242,-0.26703 1.024335,-0.51456 0.261031,-0.22197 0.603049,-0.83246 0.603049,-0.83246 l -1.466967,-1.06867 c 0,0 -0.916488,0.30591 -1.393193,0.35561 -0.518284,0.054 -1.561898,-0.0659 -1.561898,-0.0659 z"
           id="path28706-6"
           sodipodi:nodetypes="caaccacc" />
      </g>
      <text
         xml:space="preserve"
         style="font-style:normal;font-variant:normal;font-weight:bold;font-stretch:normal;font-size:13.2938px;line-height:1.1;font-family:Sans;-inkscape-font-specification:'Sans, Bold';font-variant-ligatures:normal;font-variant-caps:normal;font-variant-numeric:normal;font-variant-east-asian:normal;fill:#1a1a1a;stroke-width:5.08528;stroke-dasharray:10.1706, 10.1706;stroke-opacity:0.961622"
         x="-155.67271"
         y="60.663677"
         id="text1"
         transform="rotate(-90)"><tspan
           sodipodi:role="line"
           id="tspan1"
           style="font-style:normal;font-variant:normal;font-weight:bold;font-stretch:normal;font-size:13.2938px;font-family:Sans;-inkscape-font-specification:'Sans, Bold';font-variant-ligatures:normal;font-variant-caps:normal;font-variant-numeric:normal;font-variant-east-asian:normal;fill:#1a1a1a;stroke-width:5.08531"
           x="-155.67271"
           y="60.663677">anndataR</tspan></text>
    </g>
  </g>
</svg>
